<?xml version="1.0" encoding="UTF-8" standalone="no"?>
<!DOCTYPE svg PUBLIC "-//W3C//DTD SVG 1.1//EN"
 "http://www.w3.org/Graphics/SVG/1.1/DTD/svg11.dtd">
<!-- Generated by graphviz version 11.0.0 (20240428.1522)
 -->
<!-- Title: Entity Relationship Diagram created by erdantic Pages: 1 -->
<svg width="326pt" height="343pt"
 viewBox="0.00 0.00 326.00 343.25" xmlns="http://www.w3.org/2000/svg" xmlns:xlink="http://www.w3.org/1999/xlink">
<g id="graph0" class="graph" transform="scale(1 1) rotate(0) translate(4 339.25)">
<title>Entity Relationship Diagram created by erdantic</title>
<polygon fill="white" stroke="none" points="-4,4 -4,-339.25 322,-339.25 322,4 -4,4"/>
<text text-anchor="middle" x="159" y="-6.7" font-family="Times New Roman,Times,Liberation Serif,serif" font-size="9.00" fill="#a8a8a8">Created by erdantic v1.0.4 &lt;https://github.com/drivendataorg/erdantic&gt;</text>
<!-- aind_behavior_services.session.AindBehaviorSessionModel -->
<g id="node1" class="node">
<title>aind_behavior_services.session.AindBehaviorSessionModel</title>
<g id="a_node1"><a xlink:title="aind_behavior_services.session.AindBehaviorSessionModel&#10;&#10;Usage docs: https://docs.pydantic.dev/2.8/concepts/models/&#10;&#10;A base class for creating Pydantic models.&#10;&#10;Attributes:&#10; &#160;&#160;&#160;__class_vars__: The names of classvars defined on the model.&#10; &#160;&#160;&#160;__private_attributes__: Metadata about the private attributes of the model.&#10; &#160;&#160;&#160;__signature__: The signature for instantiating the model.&#10;&#10; &#160;&#160;&#160;__pydantic_complete__: Whether model building is completed, or if there are still undefined fields.&#10; &#160;&#160;&#160;__pydantic_core_schema__: The pydantic&#45;core schema used to build the SchemaValidator and SchemaSerializer.&#10; &#160;&#160;&#160;__pydantic_custom_init__: Whether the model has a custom `__init__` function.&#10; &#160;&#160;&#160;__pydantic_decorators__: Metadata containing the decorators defined on the model.&#10; &#160;&#160;&#160;&#160;&#160;&#160;&#160;This replaces `Model.__validators__` and `Model.__root_validators__` from Pydantic V1.&#10; &#160;&#160;&#160;__pydantic_generic_metadata__: Metadata for generic models; contains data used for a similar purpose to&#10; &#160;&#160;&#160;&#160;&#160;&#160;&#160;__args__, __origin__, __parameters__ in typing&#45;module generics. May eventually be replaced by these.&#10; &#160;&#160;&#160;__pydantic_parent_namespace__: Parent namespace of the model, used for automatic rebuilding of models.&#10; &#160;&#160;&#160;__pydantic_post_init__: The name of the post&#45;init method for the model, if defined.&#10; &#160;&#160;&#160;__pydantic_root_model__: Whether the model is a `RootModel`.&#10; &#160;&#160;&#160;__pydantic_serializer__: The pydantic&#45;core SchemaSerializer used to dump instances of the model.&#10; &#160;&#160;&#160;__pydantic_validator__: The pydantic&#45;core SchemaValidator used to validate instances of the model.&#10;&#10; &#160;&#160;&#160;__pydantic_extra__: An instance attribute with the values of extra fields from validation when&#10; &#160;&#160;&#160;&#160;&#160;&#160;&#160;`model_config[&#39;extra&#39;] == &#39;allow&#39;`.&#10; &#160;&#160;&#160;__pydantic_fields_set__: An instance attribute with the names of fields explicitly set.&#10; &#160;&#160;&#160;__pydantic_private__: Instance attribute with the values of private attributes set on the model instance.&#10;">
<polygon fill="none" stroke="black" points="0,-313.25 0,-335.25 318,-335.25 318,-313.25 0,-313.25"/>
<text text-anchor="start" x="74.62" y="-319.95" font-family="Times New Roman,Times,Liberation Serif,serif" font-weight="bold" font-size="14.00">AindBehaviorSessionModel</text>
<polygon fill="none" stroke="black" points="0,-292.25 0,-313.25 213,-313.25 213,-292.25 0,-292.25"/>
<text text-anchor="start" x="2.62" y="-296.95" font-family="Times New Roman,Times,Liberation Serif,serif" font-size="14.00">aind_behavior_services_pkg_version</text>
<polygon fill="none" stroke="black" points="213,-292.25 213,-313.25 318,-313.25 318,-292.25 213,-292.25"/>
<text text-anchor="start" x="215.62" y="-296.95" font-family="Times New Roman,Times,Liberation Serif,serif" font-size="14.00">Literal[&#39;0.8.0&#45;rc1&#39;]</text>
<polygon fill="none" stroke="black" points="0,-271.25 0,-292.25 213,-292.25 213,-271.25 0,-271.25"/>
<text text-anchor="start" x="86.25" y="-275.95" font-family="Times New Roman,Times,Liberation Serif,serif" font-size="14.00">version</text>
<polygon fill="none" stroke="black" points="213,-271.25 213,-292.25 318,-292.25 318,-271.25 213,-271.25"/>
<text text-anchor="start" x="226.88" y="-275.95" font-family="Times New Roman,Times,Liberation Serif,serif" font-size="14.00">Literal[&#39;0.2.0&#39;]</text>
<polygon fill="none" stroke="black" points="0,-250.25 0,-271.25 213,-271.25 213,-250.25 0,-250.25"/>
<text text-anchor="start" x="76.12" y="-254.95" font-family="Times New Roman,Times,Liberation Serif,serif" font-size="14.00">experiment</text>
<polygon fill="none" stroke="black" points="213,-250.25 213,-271.25 318,-271.25 318,-250.25 213,-250.25"/>
<text text-anchor="start" x="258.38" y="-254.95" font-family="Times New Roman,Times,Liberation Serif,serif" font-size="14.00">str</text>
<polygon fill="none" stroke="black" points="0,-229.25 0,-250.25 213,-250.25 213,-229.25 0,-229.25"/>
<text text-anchor="start" x="70.88" y="-233.95" font-family="Times New Roman,Times,Liberation Serif,serif" font-size="14.00">experimenter</text>
<polygon fill="none" stroke="black" points="213,-229.25 213,-250.25 318,-250.25 318,-229.25 213,-229.25"/>
<text text-anchor="start" x="243.38" y="-233.95" font-family="Times New Roman,Times,Liberation Serif,serif" font-size="14.00">List[str]</text>
<polygon fill="none" stroke="black" points="0,-208.25 0,-229.25 213,-229.25 213,-208.25 0,-208.25"/>
<text text-anchor="start" x="94.88" y="-212.95" font-family="Times New Roman,Times,Liberation Serif,serif" font-size="14.00">date</text>
<polygon fill="none" stroke="black" points="213,-208.25 213,-229.25 318,-229.25 318,-208.25 213,-208.25"/>
<text text-anchor="start" x="242.25" y="-212.95" font-family="Times New Roman,Times,Liberation Serif,serif" font-size="14.00">datetime</text>
<polygon fill="none" stroke="black" points="0,-187.25 0,-208.25 213,-208.25 213,-187.25 0,-187.25"/>
<text text-anchor="start" x="79.12" y="-191.95" font-family="Times New Roman,Times,Liberation Serif,serif" font-size="14.00">root_path</text>
<polygon fill="none" stroke="black" points="213,-187.25 213,-208.25 318,-208.25 318,-187.25 213,-187.25"/>
<text text-anchor="start" x="258.38" y="-191.95" font-family="Times New Roman,Times,Liberation Serif,serif" font-size="14.00">str</text>
<polygon fill="none" stroke="black" points="0,-166.25 0,-187.25 213,-187.25 213,-166.25 0,-166.25"/>
<text text-anchor="start" x="67.5" y="-170.95" font-family="Times New Roman,Times,Liberation Serif,serif" font-size="14.00">session_name</text>
<polygon fill="none" stroke="black" points="213,-166.25 213,-187.25 318,-187.25 318,-166.25 213,-166.25"/>
<text text-anchor="start" x="229.88" y="-170.95" font-family="Times New Roman,Times,Liberation Serif,serif" font-size="14.00">Optional[str]</text>
<polygon fill="none" stroke="black" points="0,-145.25 0,-166.25 213,-166.25 213,-145.25 0,-145.25"/>
<text text-anchor="start" x="71.62" y="-149.95" font-family="Times New Roman,Times,Liberation Serif,serif" font-size="14.00">remote_path</text>
<polygon fill="none" stroke="black" points="213,-145.25 213,-166.25 318,-166.25 318,-145.25 213,-145.25"/>
<text text-anchor="start" x="229.88" y="-149.95" font-family="Times New Roman,Times,Liberation Serif,serif" font-size="14.00">Optional[str]</text>
<polygon fill="none" stroke="black" points="0,-124.25 0,-145.25 213,-145.25 213,-124.25 0,-124.25"/>
<text text-anchor="start" x="86.62" y="-128.95" font-family="Times New Roman,Times,Liberation Serif,serif" font-size="14.00">subject</text>
<polygon fill="none" stroke="black" points="213,-124.25 213,-145.25 318,-145.25 318,-124.25 213,-124.25"/>
<text text-anchor="start" x="258.38" y="-128.95" font-family="Times New Roman,Times,Liberation Serif,serif" font-size="14.00">str</text>
<polygon fill="none" stroke="black" points="0,-103.25 0,-124.25 213,-124.25 213,-103.25 0,-103.25"/>
<text text-anchor="start" x="52.12" y="-107.95" font-family="Times New Roman,Times,Liberation Serif,serif" font-size="14.00">experiment_version</text>
<polygon fill="none" stroke="black" points="213,-103.25 213,-124.25 318,-124.25 318,-103.25 213,-103.25"/>
<text text-anchor="start" x="258.38" y="-107.95" font-family="Times New Roman,Times,Liberation Serif,serif" font-size="14.00">str</text>
<polygon fill="none" stroke="black" points="0,-82.25 0,-103.25 213,-103.25 213,-82.25 0,-82.25"/>
<text text-anchor="start" x="91.5" y="-86.95" font-family="Times New Roman,Times,Liberation Serif,serif" font-size="14.00">notes</text>
<polygon fill="none" stroke="black" points="213,-82.25 213,-103.25 318,-103.25 318,-82.25 213,-82.25"/>
<text text-anchor="start" x="229.88" y="-86.95" font-family="Times New Roman,Times,Liberation Serif,serif" font-size="14.00">Optional[str]</text>
<polygon fill="none" stroke="black" points="0,-61.25 0,-82.25 213,-82.25 213,-61.25 0,-61.25"/>
<text text-anchor="start" x="69" y="-65.95" font-family="Times New Roman,Times,Liberation Serif,serif" font-size="14.00">commit_hash</text>
<polygon fill="none" stroke="black" points="213,-61.25 213,-82.25 318,-82.25 318,-61.25 213,-61.25"/>
<text text-anchor="start" x="229.88" y="-65.95" font-family="Times New Roman,Times,Liberation Serif,serif" font-size="14.00">Optional[str]</text>
<polygon fill="none" stroke="black" points="0,-40.25 0,-61.25 213,-61.25 213,-40.25 0,-40.25"/>
<text text-anchor="start" x="58.88" y="-44.95" font-family="Times New Roman,Times,Liberation Serif,serif" font-size="14.00">allow_dirty_repo</text>
<polygon fill="none" stroke="black" points="213,-40.25 213,-61.25 318,-61.25 318,-40.25 213,-40.25"/>
<text text-anchor="start" x="252.75" y="-44.95" font-family="Times New Roman,Times,Liberation Serif,serif" font-size="14.00">bool</text>
<polygon fill="none" stroke="black" points="0,-19.25 0,-40.25 213,-40.25 213,-19.25 0,-19.25"/>
<text text-anchor="start" x="35.25" y="-23.95" font-family="Times New Roman,Times,Liberation Serif,serif" font-size="14.00">skip_hardware_validation</text>
<polygon fill="none" stroke="black" points="213,-19.25 213,-40.25 318,-40.25 318,-19.25 213,-19.25"/>
<text text-anchor="start" x="252.75" y="-23.95" font-family="Times New Roman,Times,Liberation Serif,serif" font-size="14.00">bool</text>
</a>
</g>
</g>
</g>
</svg>
